# xmcd CD database file
#
# Track frame offsets:
#	150
#	29737
#	63614
#	100233
#	141673
#	158945
#	164679
#	190704
#	203611
#	226415
#	265477
#
# Disc length: 3850 seconds
#
# Revision: 0
# Processed by: cddbd v1.5.1PL2 Copyright (c) Steve Scherf et al.
# Submitted via: CDex 1.51
#
DISCID=a70f080b
DTITLE=Chick Corea - Native Sense
DYEAR=1997
DGENRE=Jazz
TTITLE0=Native sense
TTITLE1=Love Castle
TTITLE2=Duende
TTITLE3=No mystery
TTITLE4=Armando's rhumba
TTITLE5=Bagatelle #6
TTITLE6=Post script
TTITLE7=Bagatelle #2
TTITLE8=Tango '92
TTITLE9=Rhumbata
TTITLE10=Four in one
EXTD=YEAR: 1997
EXTT0=
EXTT1=
EXTT2=
EXTT3=
EXTT4=
EXTT5=
EXTT6=
EXTT7=
EXTT8=
EXTT9=
EXTT10=
PLAYORDER=
